<svg width="21" height="20" viewBox="0 0 21 20" fill="none" xmlns="http://www.w3.org/2000/svg">
<path d="M10.5286 6.82826L16.9373 5.27026C17.5282 5.12659 17.9276 5.85856 17.487 6.27776L12.8108 10.7262C12.725 10.8079 12.6655 10.9133 12.6401 11.029L11.3674 16.8186C11.2266 17.4595 10.3037 17.4323 10.2007 16.7842L9.23206 10.6867C9.20906 10.5419 9.13333 10.4107 9.01945 10.3184L4.01669 6.26343C3.5156 5.85727 3.93012 5.05587 4.55116 5.23013L10.2278 6.82298C10.3259 6.85052 10.4295 6.85234 10.5286 6.82826Z" fill="#9EFA13"/>
<path d="M6.90788 11.6474C6.97322 11.6969 7.01518 11.7712 7.0238 11.8528L7.47838 16.1507C7.51211 16.4697 7.08623 16.6082 6.92585 16.3304L2.86674 9.29985C2.70473 9.01925 3.04515 8.71896 3.30334 8.9147L6.90788 11.6474Z" fill="#9EFA13"/>
</svg>
